<svg aria-hidden="true" style="position:absolute;width:0;height:0;overflow:hidden" xmlns="http://www.w3.org/2000/svg">
    <defs>
        <symbol id="youtube" viewBox="0 0 45 32">
            <path fill="none" stroke-linejoin="round" stroke-linecap="round" stroke-miterlimit="22.4" stroke-width="2.001" d="M28.677 14.815c.441.226.726.691.726 1.191s-.286.965-.726 1.191l-8.729 4.49c-.417.214-.905.191-1.298-.048s-.643-.667-.643-1.131v-8.991c0-.464.238-.893.643-1.143a1.329 1.329 0 0 1 1.298-.048l8.729 4.49z"/>
            <path fill="none" stroke-linejoin="round" stroke-linecap="round" stroke-miterlimit="22.4" stroke-width="2.001" d="M8.336 1h28.677c4.049 0 7.336 4.049 7.336 7.336v15.339a7.34 7.34 0 0 1-7.336 7.336H8.336C4.287 31.011 1 26.962 1 23.675V8.336A7.34 7.34 0 0 1 8.336 1z"/>
        </symbol>

        <symbol id="telegram" viewBox="0 0 32 32">
            <path d="M31.034.901a3 3 0 0 0-3.277-.673L1.842 10.603c-.77.333-1.371.966-1.658 1.756s-.235 1.665.15 2.416a3.034 3.034 0 0 0 1.867 1.541l10.022 2.638a1.005 1.005 0 0 1 .718.718l2.638 10.042c.15.627.496 1.182.992 1.593s1.11.653 1.75.692h.209c.607.007 1.201-.176 1.704-.516s.888-.829 1.11-1.391L31.699 4.177a3.002 3.002 0 0 0 .17-1.743A2.988 2.988 0 0 0 31.033.9zm-1.208 2.533L19.458 29.342c-.111.261-.32.47-.588.568s-.562.078-.816-.046a1.023 1.023 0 0 1-.516-.633L14.9 19.195a3.715 3.715 0 0 0-.215-.516l5.818-5.805a1.015 1.015 0 0 0-.477-1.639 1.013 1.013 0 0 0-.953.202l-5.805 5.798a2.944 2.944 0 0 0-.516-.215L2.71 14.395c-.274-.078-.503-.261-.633-.516a1.018 1.018 0 0 1 .522-1.404L28.501 2.107c.189-.091.398-.124.601-.091s.392.131.542.274a.997.997 0 0 1 .183 1.143z"/>
        </symbol>

        <symbol id="phone" viewBox="0 0 32 32">
            <path d="M8.115 2.251a1.246 1.246 0 0 0-1.758 0L3.735 4.865a6.345 6.345 0 0 0-1.291 7.099.93.93 0 0 1-.468 1.242.93.93 0 0 1-1.242-.468 8.22 8.22 0 0 1 1.67-9.204L5.026.912a3.13 3.13 0 0 1 4.42 0l3.525 3.525a3.13 3.13 0 0 1 .589 3.606l-.984 1.96a3.426 3.426 0 0 0 .645 3.961l4.816 4.816a3.447 3.447 0 0 0 3.961.645l1.952-.976a3.118 3.118 0 0 1 3.606.589l3.525 3.525a3.13 3.13 0 0 1 0 4.42l-2.622 2.622a8.206 8.206 0 0 1-9.204 1.67A37.314 37.314 0 0 1 3.662 18.014a.946.946 0 0 1 .258-1.307.946.946 0 0 1 1.307.258 35.383 35.383 0 0 0 14.81 12.584 6.344 6.344 0 0 0 7.099-1.283l2.622-2.622a1.247 1.247 0 0 0 0-1.759l-3.525-3.525a1.24 1.24 0 0 0-1.436-.234l-1.952.976a5.312 5.312 0 0 1-6.131-.992l-4.816-4.816a5.312 5.312 0 0 1-.992-6.131l.976-1.952a1.24 1.24 0 0 0-.234-1.436L8.115 2.25z"/>
        </symbol>

        <symbol id="geo" viewBox="0 0 27 32">
            <path d="M3.917 3.976C1.411 6.488 0 9.891 0 13.438s1.411 6.95 3.917 9.462l8.849 8.849a.864.864 0 0 0 1.22 0l8.849-8.849a13.363 13.363 0 0 0 3.528-12.95 13.383 13.383 0 0 0-3.468-6.027 13.31 13.31 0 0 0-6.02-3.475A13.379 13.379 0 0 0 3.918 3.976zm17.704 17.698-8.242 8.242-8.236-8.242c-2.183-2.183-3.409-5.15-3.409-8.236S2.96 7.385 5.15 5.202a11.654 11.654 0 0 1 16.472 0 11.69 11.69 0 0 1 3.416 8.236 11.7 11.7 0 0 1-3.416 8.236z"/>
            <path d="M13.379 6.416a6.458 6.458 0 0 0-6.455 6.455 6.458 6.458 0 0 0 6.455 6.455 6.458 6.458 0 0 0 6.455-6.455c0-1.708-.686-3.35-1.892-4.556s-2.855-1.892-4.563-1.899zm0 11.17a4.697 4.697 0 0 1-3.337-1.385c-.884-.884-1.385-2.084-1.385-3.337s.495-2.453 1.385-3.337c.884-.884 2.084-1.385 3.337-1.385s2.453.495 3.337 1.385c.884.884 1.385 2.084 1.385 3.337s-.501 2.453-1.385 3.337a4.697 4.697 0 0 1-3.337 1.385z"/>
        </symbol>
        
        <symbol id="instagram" viewBox="0 0 32 32">
            <path d="M25.58 0H6.421C4.714 0 3.087.679 1.883 1.882S.001 4.713.001 6.42v19.166a6.427 6.427 0 0 0 6.42 6.42h19.166a6.427 6.427 0 0 0 6.42-6.42V6.42A6.427 6.427 0 0 0 25.58 0zm3.852 25.58c0 1.021-.409 1.999-1.131 2.721s-1.7 1.131-2.721 1.131H6.421c-1.021 0-1.999-.409-2.721-1.131s-1.131-1.7-1.131-2.721V6.421A3.85 3.85 0 0 1 3.7 3.7a3.838 3.838 0 0 1 2.721-1.131h19.166c1.021 0 1.999.409 2.721 1.131s1.131 1.7 1.131 2.721V25.58zM16.007 9.448A6.556 6.556 0 0 0 11.36 20.64c1.233 1.233 2.896 1.926 4.64 1.926s3.407-.686 4.64-1.919a6.554 6.554 0 0 0 .007-9.273 6.58 6.58 0 0 0-4.64-1.926zm0 10.536a4 4 0 0 1-2.831-1.16 3.996 3.996 0 0 1-.008-5.655 3.992 3.992 0 0 1 2.831-1.167c1.058 0 2.079.423 2.824 1.175a3.969 3.969 0 0 1-.015 5.625 3.96 3.96 0 0 1-2.802 1.16v.022zM27.01 5.997c0 .343-.139.664-.379.905s-.569.379-.905.379h-1.284c-.46 0-.883-.248-1.109-.642s-.226-.89 0-1.284a1.29 1.29 0 0 1 1.109-.642h1.284c.343 0 .664.139.905.379.241.233.379.562.379.905z"/>
        </symbol>
    </defs>
</svg>